# xmcd
#
# Track frame offsets: 
#        150
#        18562
#        39125
#        60538
#        82780
#        105693
#        125028
#        146666
#        172841
#        191766
#        209903
#        230378
#        249923
#        269561
#        289524
#        304694
#        328656
#
# Disc length: 4774 seconds
#
# Revision: 0
# Processed by: cddbd v1.4PL0 Copyright (c) Steve Scherf et al.
# Submitted via: ExactAudioCopy v0.90b4
#
DISCID=ef12a411
DTITLE=姜育恒 - 姜育恒~永远不变
DYEAR=1900
DGENRE=Pop
TTITLE0=驿动的心
TTITLE1=我是个很容易掏心的人
TTITLE2=爱我你怕了吗
TTITLE3=女人的选择
TTITLE4=其实我真得很在乎
TTITLE5=最爱的人
TTITLE6=烟火
TTITLE7=跟往事干杯
TTITLE8=再回首
TTITLE9=别让我一个人醉
TTITLE10=情难枕
TTITLE11=泪的小花
TTITLE12=想哭就哭
TTITLE13=梅花三弄
TTITLE14=把心给你
TTITLE15=牵手
TTITLE16=有空来坐坐
EXTD=
EXTT0=
EXTT1=
EXTT2=
EXTT3=
EXTT4=
EXTT5=
EXTT6=
EXTT7=
EXTT8=
EXTT9=
EXTT10=
EXTT11=
EXTT12=
EXTT13=
EXTT14=
EXTT15=
EXTT16=
PLAYORDER=
